# xmcd CD database file
#
# Track frame offsets:
#	150
#	16387
#	30412
#	41185
#	56285
#	71387
#	88337
#	101195
#	116480
#	128975
#	147647
#	161265
#
# Disc length: 2349 seconds
#
# Revision: 0
# Processed by: cddbd v1.4PL0 Copyright (c) Steve Scherf et al.
# Submitted via: CDex 1.50Beta7
#
DISCID=a4092b0c
DTITLE=Various artist - Trampske pisne z krcmy"U Zraloka"
DYEAR=1997
DGENRE=Country
TTITLE0=Bila Kanada
TTITLE1=Desperado
TTITLE2=Do Ameriky
TTITLE3=Zeme ma
TTITLE4=Cabaleri,zapad hori
TTITLE5=Usinam v chuzi
TTITLE6=Ruze
TTITLE7=Nevada
TTITLE8=Horici prerie
TTITLE9=Kanon svou pisen zpiva
TTITLE10=Kormidelnik
TTITLE11=Na rozloucenou
EXTD=YEAR: 1997
EXTT0=
EXTT1=
EXTT2=
EXTT3=
EXTT4=
EXTT5=
EXTT6=
EXTT7=
EXTT8=
EXTT9=
EXTT10=
EXTT11=
PLAYORDER=
